<svg width="40" height="40" viewBox="0 0 40 40" fill="none" xmlns="http://www.w3.org/2000/svg">
<path d="M15.4219 0.427442C15.4031 0.443128 15.2656 0.482344 15.1094 0.509795C14.7781 0.568618 14.2906 0.733324 13.9531 0.901952C12.0781 1.83528 10.7625 3.9294 10.4875 6.40783C10.4625 6.64313 10.4281 6.85097 10.4156 6.86666C10.4 6.88627 8.98436 6.90587 7.26561 6.91372C4.14687 6.92548 4.14062 6.92548 3.89062 7.01176C3.05 7.30587 2.45625 7.74117 1.84375 8.5098C1.20313 9.3098 0.775001 10.2078 0.471877 11.3608C0.365627 11.7765 0.218752 12.6392 0.218752 12.8627C0.218752 12.9451 0.206252 13.0274 0.187502 13.0392C0.146877 13.0706 0.143752 33.4471 0.184377 33.5765C0.200002 33.6274 0.228127 33.8353 0.250002 34.0392C0.296877 34.502 0.462502 35.2784 0.615626 35.7451C0.787501 36.2823 0.925001 36.6078 1.175 37.0784C1.91875 38.4863 2.87812 39.3255 4.12187 39.6549C4.37499 39.7216 35.6249 39.7216 35.8781 39.6549C37.1124 39.3255 38.0656 38.498 38.8156 37.102C39.2906 36.2157 39.6468 35.0549 39.7499 34.0392C39.7718 33.8353 39.7999 33.6274 39.8156 33.5765C39.8562 33.4471 39.8531 13.0706 39.8124 13.0392C39.7968 13.0274 39.7812 12.9451 39.7812 12.8627C39.7812 12.6274 39.6312 11.7569 39.5124 11.298C39.3656 10.7372 38.9874 9.78823 38.7281 9.33332C38.4468 8.83529 37.8718 8.11764 37.5062 7.80783C36.8968 7.29019 36.2374 6.98823 35.5624 6.9098L35.2968 6.88234L35.2812 5.62744C35.2656 4.41568 35.2624 4.3647 35.1937 4.18823C35.0687 3.86666 34.7624 3.5843 34.4218 3.4745C34.2624 3.4196 33.8843 3.41176 31.6093 3.41176C29.2843 3.41176 28.9593 3.4196 28.8093 3.4745C28.4656 3.60391 28.2218 3.82744 28.0687 4.15293L27.9843 4.33332L27.9687 5.60783L27.9531 6.88234H27.5937H27.2343L27.2125 6.66666C27.1125 5.70195 26.9531 5.02744 26.6375 4.23529C26.0062 2.63921 24.8312 1.36078 23.4656 0.784304C23.1625 0.654893 22.5031 0.470579 22.3437 0.470579C22.2937 0.470579 22.2437 0.450971 22.2343 0.431363C22.2093 0.384304 15.4625 0.376461 15.4219 0.427442ZM22.3156 2.57254C23.1343 2.74901 23.85 3.21568 24.4375 3.95685C25.0968 4.7843 25.475 5.80391 25.5593 6.99999C25.5781 7.23529 25.6062 7.74117 25.625 8.11764C25.6437 8.49411 25.6656 8.84313 25.6718 8.89019L25.6875 8.98038H30.5906C35.4062 8.98038 35.4937 8.98038 35.7374 9.05881C36.7562 9.38823 37.5968 10.5372 37.9718 12.1176C38.1531 12.8745 38.1406 12.0274 38.1499 23.1176C38.1562 30.0588 38.1468 33.3765 38.1249 33.5921C37.9343 35.4431 37.0531 36.9961 35.9218 37.4823C35.8187 37.5255 35.6406 37.5804 35.5281 37.6039C35.2374 37.6667 4.76249 37.6667 4.47187 37.6039C3.76875 37.4588 3.13125 36.9294 2.63437 36.0784C2.25625 35.4314 1.96562 34.4784 1.875 33.5921C1.85312 33.3765 1.84375 30.0588 1.85 23.1176C1.85937 13.7059 1.8625 12.9372 1.9125 12.6667C2.12187 11.5137 2.45937 10.6823 3 9.99607C3.34687 9.55685 3.69375 9.28234 4.14062 9.09411L4.35937 8.99999L8.17186 8.98038L11.9844 8.96078L12.0031 8.74509C12.0156 8.62744 12.0406 8.20391 12.0594 7.80391C12.1281 6.40391 12.2156 5.90979 12.5375 5.13725C13.0844 3.80783 14.0969 2.87058 15.2812 2.58823C15.5531 2.52156 15.8344 2.51764 18.8 2.51372C21.6312 2.50979 22.0562 2.51764 22.3156 2.57254Z" fill="#7868E6"/>
<path d="M14.1531 7.47842C14.0062 7.63529 13.9375 7.85097 13.9375 8.17646C13.9375 8.50195 14.0062 8.71764 14.1531 8.8745L14.2562 8.98038H18.7875H23.3188L23.4375 8.83137C23.6938 8.5098 23.6938 7.84313 23.4375 7.52156L23.3188 7.37254H18.7875H14.2562L14.1531 7.47842Z" fill="#7868E6"/>
<path d="M17.9531 12.7844C17.5594 12.8471 17.1156 12.9451 16.7969 13.0432C14.4375 13.7765 12.4031 15.804 11.2969 18.5295C10.375 20.8 10.1406 23.3804 10.625 25.902C11.0062 27.8863 11.9437 29.8393 13.1687 31.2118C14.175 32.3373 15.2312 33.0706 16.5781 33.5648C17.025 33.7334 17.6875 33.8667 18.3219 33.9255C19.6844 34.051 21.1781 33.6902 22.4562 32.9216C24.2219 31.8667 25.6625 30.0706 26.4562 27.9295C26.5531 27.6785 26.6406 27.4353 26.6594 27.3922C26.7344 27.1922 26.95 26.3765 27.0156 26.0393C27.2281 24.9765 27.2656 24.5765 27.2656 23.3138C27.2656 22.3491 27.2562 22.153 27.1937 21.6863C26.9031 19.5491 26.2 17.7295 25.0531 16.1569C23.9031 14.5726 22.2937 13.4157 20.6375 12.9765C19.9906 12.804 19.775 12.7765 18.9687 12.7648C18.5312 12.7569 18.075 12.7648 17.9531 12.7844ZM19.6094 14.5295C20.5437 14.6706 21.1594 14.8981 21.9844 15.4157C23.1781 16.1608 24.1812 17.3098 24.8625 18.7098C26.2844 21.6393 26.2469 25.2902 24.7656 28.1569C23.9062 29.8236 22.5625 31.1295 21.0719 31.7491C20.3594 32.0471 19.85 32.1569 19.0469 32.1844C18.1406 32.2157 17.4719 32.102 16.6875 31.7883C14.3375 30.8432 12.5094 28.3687 11.95 25.3765C11.6875 23.9687 11.7 22.553 11.9875 21.1177C12.1937 20.0863 12.6687 18.8628 13.2125 17.9608C13.4594 17.5569 14.05 16.7961 14.3906 16.451C15.8531 14.9687 17.7906 14.251 19.6094 14.5295Z" fill="#7868E6"/>
<path d="M18.2188 15.6314C18.175 15.6392 18.0156 15.6667 17.8594 15.6902C16.4375 15.9098 15.0906 16.7608 14.2312 17.9882C13.3906 19.1882 12.825 20.9412 12.7312 22.6196C12.7062 23.0745 12.75 23.2235 12.9219 23.3176C13.1625 23.4431 13.375 23.2039 13.375 22.8039C13.375 22.702 13.3969 22.4314 13.425 22.2C13.6781 20.0196 14.6 18.2314 15.95 17.298C16.6094 16.8431 17.4813 16.5294 18.3031 16.447C18.6406 16.4157 18.7625 16.3569 18.8281 16.1961C18.9 16.0235 18.8688 15.8353 18.7469 15.7098C18.6656 15.6235 18.6219 15.6078 18.475 15.6118C18.3781 15.6157 18.2625 15.6235 18.2188 15.6314Z" fill="#7868E6"/>
</svg>
