<svg width="198" height="40" viewBox="0 0 198 40" fill="none" xmlns="http://www.w3.org/2000/svg">
<path d="M61.648 9.6C62.736 9.6 63.7707 9.93067 64.752 10.592C65.7333 11.232 66.5227 12.1067 67.12 13.216C67.7173 14.304 68.016 15.4987 68.016 16.8C68.016 18.08 67.7173 19.2747 67.12 20.384C66.5227 21.4933 65.7333 22.3787 64.752 23.04C63.7707 23.68 62.736 24 61.648 24H56.08V30.048C56.08 30.624 55.9093 31.0933 55.568 31.456C55.2267 31.8187 54.7787 32 54.224 32C53.6907 32 53.2533 31.8187 52.912 31.456C52.5707 31.072 52.4 30.6027 52.4 30.048V11.552C52.4 10.9973 52.5813 10.5387 52.944 10.176C53.328 9.792 53.7973 9.6 54.352 9.6H61.648ZM61.648 20.352C62.0533 20.352 62.448 20.1813 62.832 19.84C63.2373 19.4987 63.5573 19.0613 63.792 18.528C64.048 17.9733 64.176 17.3973 64.176 16.8C64.176 16.2027 64.048 15.6373 63.792 15.104C63.5573 14.5493 63.2373 14.112 62.832 13.792C62.448 13.4507 62.0533 13.28 61.648 13.28H56.08V20.352H61.648ZM87.5853 9.568C88.1399 9.568 88.5879 9.74933 88.9293 10.112C89.2706 10.4747 89.4413 10.944 89.4413 11.52V23.104C89.4413 24.8747 89.0679 26.4427 88.3213 27.808C87.5746 29.1733 86.5293 30.24 85.1853 31.008C83.8413 31.776 82.3053 32.16 80.5773 32.16C78.8493 32.16 77.3026 31.776 75.9373 31.008C74.5933 30.24 73.5479 29.1733 72.8013 27.808C72.0546 26.4427 71.6813 24.8747 71.6813 23.104V11.52C71.6813 10.9653 71.8733 10.5067 72.2573 10.144C72.6413 9.76 73.1319 9.568 73.7293 9.568C74.2413 9.568 74.6893 9.76 75.0733 10.144C75.4573 10.5067 75.6493 10.9653 75.6493 11.52V23.104C75.6493 24.128 75.8733 25.0453 76.3213 25.856C76.7693 26.6453 77.3666 27.2533 78.1133 27.68C78.8813 28.1067 79.7026 28.32 80.5773 28.32C81.4946 28.32 82.3479 28.1067 83.1373 27.68C83.9479 27.2533 84.5879 26.6453 85.0573 25.856C85.5479 25.0453 85.7933 24.128 85.7933 23.104V11.52C85.7933 10.944 85.9533 10.4747 86.2733 10.112C86.5933 9.74933 87.0306 9.568 87.5853 9.568ZM111.46 11.488C111.46 11.8933 111.31 12.2987 111.012 12.704L98.8518 28.32H109.06C109.636 28.32 110.105 28.4907 110.468 28.832C110.83 29.152 111.012 29.5893 111.012 30.144C111.012 30.6773 110.82 31.1253 110.436 31.488C110.073 31.8293 109.614 32 109.06 32H95.0118C94.4571 32 93.9771 31.808 93.5718 31.424C93.1664 31.04 92.9638 30.6027 92.9638 30.112C92.9638 29.7067 93.1131 29.3013 93.4118 28.896L105.54 13.28H96.2918C95.7158 13.28 95.2464 13.1093 94.8838 12.768C94.5211 12.4267 94.3398 11.9787 94.3398 11.424C94.3398 10.8907 94.5211 10.4533 94.8838 10.112C95.2678 9.77067 95.7371 9.6 96.2918 9.6H109.38C109.892 9.6 110.361 9.78133 110.788 10.144C111.236 10.5067 111.46 10.9547 111.46 11.488ZM132.21 11.488C132.21 11.8933 132.06 12.2987 131.762 12.704L119.602 28.32H129.81C130.386 28.32 130.855 28.4907 131.218 28.832C131.58 29.152 131.762 29.5893 131.762 30.144C131.762 30.6773 131.57 31.1253 131.186 31.488C130.823 31.8293 130.364 32 129.81 32H115.762C115.207 32 114.727 31.808 114.322 31.424C113.916 31.04 113.714 30.6027 113.714 30.112C113.714 29.7067 113.863 29.3013 114.162 28.896L126.29 13.28H117.042C116.466 13.28 115.996 13.1093 115.634 12.768C115.271 12.4267 115.09 11.9787 115.09 11.424C115.09 10.8907 115.271 10.4533 115.634 10.112C116.018 9.77067 116.487 9.6 117.042 9.6H130.13C130.642 9.6 131.111 9.78133 131.538 10.144C131.986 10.5067 132.21 10.9547 132.21 11.488ZM148.096 28.256C148.65 28.256 149.109 28.4373 149.472 28.8C149.856 29.1413 150.048 29.5893 150.048 30.144C150.048 30.6773 149.856 31.1253 149.472 31.488C149.109 31.8293 148.65 32 148.096 32H137.696C137.141 32 136.672 31.8187 136.288 31.456C135.925 31.072 135.744 30.6027 135.744 30.048V11.552C135.744 10.9973 135.936 10.5387 136.32 10.176C136.704 9.792 137.194 9.6 137.792 9.6C138.325 9.6 138.784 9.792 139.168 10.176C139.552 10.5387 139.744 10.9973 139.744 11.552V28.256H148.096ZM157.713 30.048C157.713 30.6027 157.51 31.072 157.105 31.456C156.699 31.8187 156.23 32 155.697 32C155.121 32 154.641 31.8187 154.257 31.456C153.894 31.072 153.713 30.6027 153.713 30.048V11.552C153.713 10.9973 153.905 10.5387 154.289 10.176C154.673 9.792 155.163 9.6 155.761 9.6C156.294 9.6 156.753 9.792 157.137 10.176C157.521 10.5387 157.713 10.9973 157.713 11.552V30.048ZM166.525 13.28V18.912H173.437C173.992 18.912 174.45 19.0933 174.813 19.456C175.197 19.7973 175.389 20.2453 175.389 20.8C175.389 21.2693 175.197 21.6853 174.813 22.048C174.45 22.4107 173.992 22.592 173.437 22.592H166.525V30.048C166.525 30.6027 166.322 31.072 165.917 31.456C165.533 31.8187 165.074 32 164.541 32C163.944 32 163.453 31.8187 163.069 31.456C162.706 31.0933 162.525 30.624 162.525 30.048V11.552C162.525 10.9973 162.706 10.5387 163.069 10.176C163.453 9.792 163.922 9.6 164.477 9.6H174.877C175.432 9.6 175.89 9.78133 176.253 10.144C176.637 10.4853 176.829 10.9333 176.829 11.488C176.829 11.9573 176.637 12.3733 176.253 12.736C175.89 13.0987 175.432 13.28 174.877 13.28H166.525ZM196.686 11.488C196.686 11.9147 196.568 12.3093 196.334 12.672L189.646 22.24V30.048C189.646 30.6027 189.464 31.072 189.102 31.456C188.739 31.8187 188.302 32 187.79 32C187.256 32 186.798 31.8187 186.414 31.456C186.051 31.072 185.87 30.6027 185.87 30.048V21.792L179.214 12.96C178.83 12.448 178.638 11.9467 178.638 11.456C178.638 10.9013 178.851 10.4427 179.278 10.08C179.726 9.696 180.195 9.504 180.686 9.504C181.283 9.504 181.806 9.80267 182.254 10.4L187.886 18.176L193.166 10.464C193.614 9.824 194.147 9.504 194.766 9.504C195.278 9.504 195.726 9.696 196.11 10.08C196.494 10.464 196.686 10.9333 196.686 11.488Z" fill="#7868E6"/>
<path d="M15.4219 0.427442C15.4031 0.443128 15.2656 0.482344 15.1094 0.509795C14.7781 0.568618 14.2906 0.733324 13.9531 0.901952C12.0781 1.83528 10.7625 3.9294 10.4875 6.40783C10.4625 6.64313 10.4281 6.85097 10.4156 6.86666C10.4 6.88627 8.98436 6.90587 7.26561 6.91372C4.14687 6.92548 4.14062 6.92548 3.89062 7.01176C3.05 7.30587 2.45625 7.74117 1.84375 8.5098C1.20313 9.3098 0.775001 10.2078 0.471877 11.3608C0.365627 11.7765 0.218752 12.6392 0.218752 12.8627C0.218752 12.9451 0.206252 13.0274 0.187502 13.0392C0.146877 13.0706 0.143752 33.4471 0.184377 33.5765C0.200002 33.6274 0.228127 33.8353 0.250002 34.0392C0.296877 34.502 0.462502 35.2784 0.615626 35.7451C0.787501 36.2823 0.925001 36.6078 1.175 37.0784C1.91875 38.4863 2.87812 39.3255 4.12187 39.6549C4.37499 39.7216 35.6249 39.7216 35.8781 39.6549C37.1124 39.3255 38.0656 38.498 38.8156 37.102C39.2906 36.2157 39.6468 35.0549 39.7499 34.0392C39.7718 33.8353 39.7999 33.6274 39.8156 33.5765C39.8562 33.4471 39.8531 13.0706 39.8124 13.0392C39.7968 13.0274 39.7812 12.9451 39.7812 12.8627C39.7812 12.6274 39.6312 11.7569 39.5124 11.298C39.3656 10.7372 38.9874 9.78823 38.7281 9.33332C38.4468 8.83529 37.8718 8.11764 37.5062 7.80783C36.8968 7.29019 36.2374 6.98823 35.5624 6.9098L35.2968 6.88234L35.2812 5.62744C35.2656 4.41568 35.2624 4.3647 35.1937 4.18823C35.0687 3.86666 34.7624 3.5843 34.4218 3.4745C34.2624 3.4196 33.8843 3.41176 31.6093 3.41176C29.2843 3.41176 28.9593 3.4196 28.8093 3.4745C28.4656 3.60391 28.2218 3.82744 28.0687 4.15293L27.9843 4.33332L27.9687 5.60783L27.9531 6.88234H27.5937H27.2343L27.2125 6.66666C27.1125 5.70195 26.9531 5.02744 26.6375 4.23529C26.0062 2.63921 24.8312 1.36078 23.4656 0.784304C23.1625 0.654893 22.5031 0.470579 22.3437 0.470579C22.2937 0.470579 22.2437 0.450971 22.2343 0.431363C22.2093 0.384304 15.4625 0.376461 15.4219 0.427442ZM22.3156 2.57254C23.1343 2.74901 23.85 3.21568 24.4375 3.95685C25.0968 4.7843 25.475 5.80391 25.5593 6.99999C25.5781 7.23529 25.6062 7.74117 25.625 8.11764C25.6437 8.49411 25.6656 8.84313 25.6718 8.89019L25.6875 8.98038H30.5906C35.4062 8.98038 35.4937 8.98038 35.7374 9.05881C36.7562 9.38823 37.5968 10.5372 37.9718 12.1176C38.1531 12.8745 38.1406 12.0274 38.1499 23.1176C38.1562 30.0588 38.1468 33.3765 38.1249 33.5921C37.9343 35.4431 37.0531 36.9961 35.9218 37.4823C35.8187 37.5255 35.6406 37.5804 35.5281 37.6039C35.2374 37.6667 4.76249 37.6667 4.47187 37.6039C3.76875 37.4588 3.13125 36.9294 2.63437 36.0784C2.25625 35.4314 1.96562 34.4784 1.875 33.5921C1.85312 33.3765 1.84375 30.0588 1.85 23.1176C1.85937 13.7059 1.8625 12.9372 1.9125 12.6667C2.12187 11.5137 2.45937 10.6823 3 9.99607C3.34687 9.55685 3.69375 9.28234 4.14062 9.09411L4.35937 8.99999L8.17186 8.98038L11.9844 8.96078L12.0031 8.74509C12.0156 8.62744 12.0406 8.20391 12.0594 7.80391C12.1281 6.40391 12.2156 5.90979 12.5375 5.13725C13.0844 3.80783 14.0969 2.87058 15.2812 2.58823C15.5531 2.52156 15.8344 2.51764 18.8 2.51372C21.6312 2.50979 22.0562 2.51764 22.3156 2.57254Z" fill="#7868E6"/>
<path d="M14.1531 7.47842C14.0062 7.63529 13.9375 7.85097 13.9375 8.17646C13.9375 8.50195 14.0062 8.71764 14.1531 8.8745L14.2562 8.98038H18.7875H23.3188L23.4375 8.83137C23.6938 8.5098 23.6938 7.84313 23.4375 7.52156L23.3188 7.37254H18.7875H14.2562L14.1531 7.47842Z" fill="#7868E6"/>
<path d="M17.9531 12.7844C17.5594 12.8471 17.1156 12.9451 16.7969 13.0432C14.4375 13.7765 12.4031 15.804 11.2969 18.5295C10.375 20.8 10.1406 23.3804 10.625 25.902C11.0062 27.8863 11.9437 29.8393 13.1687 31.2118C14.175 32.3373 15.2312 33.0706 16.5781 33.5648C17.025 33.7334 17.6875 33.8667 18.3219 33.9255C19.6844 34.051 21.1781 33.6902 22.4562 32.9216C24.2219 31.8667 25.6625 30.0706 26.4562 27.9295C26.5531 27.6785 26.6406 27.4353 26.6594 27.3922C26.7344 27.1922 26.95 26.3765 27.0156 26.0393C27.2281 24.9765 27.2656 24.5765 27.2656 23.3138C27.2656 22.3491 27.2562 22.153 27.1937 21.6863C26.9031 19.5491 26.2 17.7295 25.0531 16.1569C23.9031 14.5726 22.2937 13.4157 20.6375 12.9765C19.9906 12.804 19.775 12.7765 18.9687 12.7648C18.5312 12.7569 18.075 12.7648 17.9531 12.7844ZM19.6094 14.5295C20.5437 14.6706 21.1594 14.8981 21.9844 15.4157C23.1781 16.1608 24.1812 17.3098 24.8625 18.7098C26.2844 21.6393 26.2469 25.2902 24.7656 28.1569C23.9062 29.8236 22.5625 31.1295 21.0719 31.7491C20.3594 32.0471 19.85 32.1569 19.0469 32.1844C18.1406 32.2157 17.4719 32.102 16.6875 31.7883C14.3375 30.8432 12.5094 28.3687 11.95 25.3765C11.6875 23.9687 11.7 22.553 11.9875 21.1177C12.1937 20.0863 12.6687 18.8628 13.2125 17.9608C13.4594 17.5569 14.05 16.7961 14.3906 16.451C15.8531 14.9687 17.7906 14.251 19.6094 14.5295Z" fill="#7868E6"/>
<path d="M18.2188 15.6314C18.175 15.6392 18.0156 15.6667 17.8594 15.6902C16.4375 15.9098 15.0906 16.7608 14.2312 17.9882C13.3906 19.1882 12.825 20.9412 12.7312 22.6196C12.7062 23.0745 12.75 23.2235 12.9219 23.3176C13.1625 23.4431 13.375 23.2039 13.375 22.8039C13.375 22.702 13.3969 22.4314 13.425 22.2C13.6781 20.0196 14.6 18.2314 15.95 17.298C16.6094 16.8431 17.4813 16.5294 18.3031 16.447C18.6406 16.4157 18.7625 16.3569 18.8281 16.1961C18.9 16.0235 18.8688 15.8353 18.7469 15.7098C18.6656 15.6235 18.6219 15.6078 18.475 15.6118C18.3781 15.6157 18.2625 15.6235 18.2188 15.6314Z" fill="#7868E6"/>
</svg>
